<svg xmlns="http://www.w3.org/2000/svg" viewBox="0 0 24 24" fill="#107C10">
  <path d="M12 2C6.48 2 2 6.48 2 12s4.48 10 10 10 10-4.48 10-10S17.52 2 12 2zm0 1.5c2.04 0 3.92.71 5.4 1.9-1.2-.62-3.27-1.5-5.4-1.5s-4.2.88-5.4 1.5A8.46 8.46 0 0 1 12 3.5zM4.6 6.93C6.2 8.1 9.05 10.86 12 14.2c2.95-3.34 5.8-6.1 7.4-7.27A8.48 8.48 0 0 1 20.5 12c0 1.86-.6 3.58-1.62 4.98C17.3 14.2 14.1 10.7 12 8.6c-2.1 2.1-5.3 5.6-6.88 8.38A8.46 8.46 0 0 1 3.5 12c0-1.9.62-3.65 1.1-5.07zM12 22.5c-2.04 0-3.92-.71-5.4-1.9C7.9 18.9 10.3 15.9 12 13.9c1.7 2 4.1 5 5.4 6.7A8.46 8.46 0 0 1 12 22.5z"/>
</svg>
